<?xml version="1.0" encoding="UTF-8"?>
<svg version="1.1" xmlns="http://www.w3.org/2000/svg" width="112" height="112">
<path d="M0 0 C9.42322588 6.21932908 17.66473312 14.46589666 20.5390625 25.67578125 C21.22613281 25.32644531 21.91320312 24.97710938 22.62109375 24.6171875 C23.52214844 24.16214844 24.42320313 23.70710938 25.3515625 23.23828125 C26.24488281 22.78582031 27.13820313 22.33335938 28.05859375 21.8671875 C32.43231604 19.76642325 35.77931859 19.54080763 40.6015625 19.55078125 C42.47521484 19.54691406 42.47521484 19.54691406 44.38671875 19.54296875 C47.5390625 19.67578125 47.5390625 19.67578125 49.5390625 20.67578125 C49.5390625 25.62578125 49.5390625 30.57578125 49.5390625 35.67578125 C46.96744792 36.42447917 44.39583333 37.17317708 41.82421875 37.921875 C39.5988132 38.46604176 39.5988132 38.46604176 38.5390625 39.67578125 C38.79985889 47.75205651 41.57487825 54.26371683 44.6015625 61.67578125 C48.9485175 72.83021753 53.06865174 84.22708058 48.1796875 95.9296875 C44.5271676 102.04331009 39.05007182 105.53578781 32.4453125 107.9921875 C26.89233792 109.29833072 21.2004741 109.15609572 15.5390625 108.67578125 C14.5390625 107.67578125 14.5390625 107.67578125 14.44140625 104.296875 C14.44807881 102.90231048 14.46003718 101.50776382 14.4765625 100.11328125 C14.48107422 99.40236328 14.48558594 98.69144531 14.49023438 97.95898438 C14.50205386 96.19788112 14.51998987 94.43682089 14.5390625 92.67578125 C15.16554688 92.51722656 15.79203125 92.35867187 16.4375 92.1953125 C17.25476563 91.96199219 18.07203125 91.72867188 18.9140625 91.48828125 C20.13222656 91.15763672 20.13222656 91.15763672 21.375 90.8203125 C23.7190994 89.83403924 23.7190994 89.83403924 24.77148438 87.43554688 C25.71445888 84.04515764 25.24028924 82.62895963 23.984375 79.375 C23.43330078 77.91030273 23.43330078 77.91030273 22.87109375 76.41601562 C22.47277344 75.40861328 22.07445313 74.40121094 21.6640625 73.36328125 C21.27347656 72.33654297 20.88289063 71.30980469 20.48046875 70.25195312 C19.51493628 67.7203741 18.53415409 65.19585546 17.5390625 62.67578125 C16.8790625 62.67578125 16.2190625 62.67578125 15.5390625 62.67578125 C14.00888889 64.2661471 14.00888889 64.2661471 12.4140625 66.30078125 C5.17762262 74.74578119 -4.13486803 80.73194213 -15.4609375 81.67578125 C-28.68085884 82.61502966 -40.03127732 78.6450031 -50.0859375 70.17578125 C-56.24907326 64.4149613 -61.88227181 56.18540401 -62.65380859 47.50610352 C-63.12013397 32.95533863 -62.98032265 21.90085679 -53.2109375 10.30078125 C-39.7163442 -3.64139391 -17.99481375 -9.20483988 0 0 Z M-35.1796875 26.5078125 C-38.30215755 31.10982504 -39.4609375 35.1334583 -39.4609375 40.67578125 C-38.03114089 47.43595994 -34.61689004 51.28749284 -29.1484375 55.42578125 C-23.40721135 58.09611899 -19.13681932 58.20734618 -13.2734375 56.11328125 C-7.53786459 53.54945373 -4.90907297 50.57205218 -2.0859375 44.92578125 C-0.8523093 38.51091462 -1.25515329 32.81828219 -4.9609375 27.30078125 C-9.11313557 22.37004604 -14.17457309 20.30508507 -20.3984375 19.11328125 C-25.99321721 20.14089385 -31.23546689 22.3036319 -35.1796875 26.5078125 Z " fill="#00A552" transform="translate(62.4609375,3.32421875)"/>
<path d="M0 0 C6.02485936 3.92243448 11.98262405 9.50076048 14.25 16.46484375 C13.8046875 18.6328125 13.8046875 18.6328125 13.25 20.46484375 C12.2909375 18.85609375 12.2909375 18.85609375 11.3125 17.21484375 C8.13118018 12.80580332 4.4936958 10.77362916 -0.75 9.46484375 C-6.47374949 8.98867444 -11.32547479 10.5598742 -16.015625 13.82421875 C-19.773712 17.37916591 -21.56735095 21.66422491 -21.90234375 26.80078125 C-21.54145434 32.22337598 -19.98617282 36.12155917 -16.75 40.46484375 C-12.49178859 44.02055835 -7.32709168 45.88387389 -1.75 45.46484375 C4.34017755 43.90325976 8.80265033 41.9231474 12.25 36.46484375 C12.91 35.80484375 13.57 35.14484375 14.25 34.46484375 C13.54433312 41.87434601 9.52578219 46.86089055 4.26953125 51.8515625 C-2.84391781 57.53406629 -11.07138234 58.32769135 -19.90625 57.90234375 C-28.75680796 56.89496317 -34.50443406 52.72609582 -40.0546875 45.90625 C-45.50947145 38.05085836 -47.19409937 29.94664349 -45.75 20.46484375 C-43.0124477 11.96293604 -38.20292607 5.41358666 -30.75 0.46484375 C-21.58042657 -4.2285872 -9.40894917 -4.46607216 0 0 Z " fill="#2483C0" transform="translate(45.75,14.53515625)"/>
<path d="M0 0 C0.66 0.33 1.32 0.66 2 1 C2 5.95 2 10.9 2 16 C-0.413125 16.556875 -0.413125 16.556875 -2.875 17.125 C-5.6172055 17.85689786 -5.6172055 17.85689786 -8 19 C-9.76097486 22.01773585 -9.76097486 22.01773585 -10 25 C-15.42933187 18.7950493 -16.49958979 11.99343664 -16 4 C-10.43122058 0.68242928 -6.49632312 -0.56002785 0 0 Z " fill="#2477B7" transform="translate(110,23)"/>
<path d="M0 0 C4.13892472 4.13892472 5.59892232 10.79407276 6.625 16.4375 C6 19 6 19 3.6875 21.3125 C-0.73409183 23.86341836 -5.98962557 24.04267781 -11 24 C-12 23 -12 23 -12.09765625 19.62109375 C-12.09098369 18.22652923 -12.07902532 16.83198257 -12.0625 15.4375 C-12.05798828 14.72658203 -12.05347656 14.01566406 -12.04882812 13.28320312 C-12.03700864 11.52209987 -12.01907263 9.76103964 -12 8 C-11.07767578 7.76216797 -11.07767578 7.76216797 -10.13671875 7.51953125 C-4.81650238 6.06053713 -4.81650238 6.06053713 -0.9375 2.3125 C-0.628125 1.549375 -0.31875 0.78625 0 0 Z " fill="#225599" transform="translate(89,88)"/>
<path d="M0 0 C1.32 0 2.64 0 4 0 C4.47970123 1.74985354 4.95873924 3.49988891 5.4375 5.25 C5.83775391 6.71179688 5.83775391 6.71179688 6.24609375 8.203125 C6.85544584 10.46372653 7.44238255 12.72622009 8 15 C5.6739143 15.38063221 3.33944736 15.71269945 1 16 C0 15 0 15 -0.09765625 11.62109375 C-0.09098369 10.22652923 -0.07902532 8.83198257 -0.0625 7.4375 C-0.05798828 6.72658203 -0.05347656 6.01566406 -0.04882812 5.28320312 C-0.03700864 3.52209987 -0.01907263 1.76103964 0 0 Z " fill="#257ABD" transform="translate(77,96)"/>
<path d="M0 0 C0.66 0.33 1.32 0.66 2 1 C1.67 1.99 1.34 2.98 1 4 C0.77674186 6.05893621 0.59294241 8.12233653 0.4375 10.1875 C0.35371094 11.27417969 0.26992187 12.36085938 0.18359375 13.48046875 C0.12300781 14.31191406 0.06242187 15.14335938 0 16 C-2.37474414 12.4378838 -3.16799907 10.70938111 -3.25 6.5 C-3.27578125 5.7059375 -3.3015625 4.911875 -3.328125 4.09375 C-3.21984375 3.4028125 -3.1115625 2.711875 -3 2 C-2.01 1.34 -1.02 0.68 0 0 Z " fill="#225297" transform="translate(97,25)"/>
<path d="M0 0 C1.32 0 2.64 0 4 0 C4.05406122 1.93719378 4.09282025 3.87481921 4.125 5.8125 C4.14820312 6.89144531 4.17140625 7.97039062 4.1953125 9.08203125 C4 12 4 12 2 15 C1.66223316 13.2508503 1.32996329 11.50063855 1 9.75 C0.814375 8.77546875 0.62875 7.8009375 0.4375 6.796875 C0 4 0 4 0 0 Z " fill="#246CAF" transform="translate(81,95)"/>
<path d="M0 0 C0.99 0.99 1.98 1.98 3 3 C3 4.32 3 5.64 3 7 C3.66 7 4.32 7 5 7 C4.67 8.32 4.34 9.64 4 11 C2.68 10.67 1.36 10.34 0 10 C0 6.7 0 3.4 0 0 Z " fill="#2596CF" transform="translate(77,101)"/>
<path d="M0 0 C0.33 0.99 0.66 1.98 1 3 C0.05988318 4.70116376 -0.94895617 6.36504293 -2 8 C-2.69822617 9.65369357 -3.37498605 11.31727014 -4 13 C-5.08557659 9.75784173 -4.94015194 7.97678191 -3.6875 4.8125 C-3.42324219 4.11769531 -3.15898438 3.42289063 -2.88671875 2.70703125 C-2 1 -2 1 0 0 Z " fill="#05A361" transform="translate(5,22)"/>
<path d="M0 0 C0.66 0 1.32 0 2 0 C3.59138085 4.17737474 4.21278058 7.53160785 4 12 C3.566875 11.1028125 3.566875 11.1028125 3.125 10.1875 C1.95257974 7.80672208 1.95257974 7.80672208 0 5 C-0.125 2.3125 -0.125 2.3125 0 0 Z " fill="#2585C5" transform="translate(77,96)"/>
<path d="M0 0 C2.83374881 3.20336822 3.5205537 5.78087253 4 10 C1.74754119 7.31158141 0.11786042 5.35358125 -1 2 C-0.67 1.34 -0.34 0.68 0 0 Z " fill="#1D5889" transform="translate(56,25)"/>
</svg>
